# xmcd
#
# Track frame offsets:
#	151
#	10565
#	23993
#	37941
#	50235
#	60831
#	72717
#	82975
#	98625
#	111273
#
# Disc length: 1612 seconds
#
# Revision: 0
# Processed by: cddbd v1.5.2PL0 Copyright (c) Steve Scherf et al.
# Submitted via: dBpowerAMP V4.0
#
DISCID=77064a0a
DTITLE=Linda Wallesch - I'm Just Me
DYEAR=1983
DGENRE=Country
TTITLE0=Rocky Top
TTITLE1=Satin Sheets
TTITLE2=Green Green Grass Of Home
TTITLE3=Four Walls
TTITLE4=Release Me
TTITLE5=Today I Started Loving You Again
TTITLE6=Okie From Muskogee
TTITLE7=For The Good Times
TTITLE8=Help Me Make It Through The Night
TTITLE9=Jambalaya
EXTD=
EXTT0=
EXTT1=
EXTT2=
EXTT3=
EXTT4=
EXTT5=
EXTT6=
EXTT7=
EXTT8=
EXTT9=
PLAYORDER=
